<?xml version="1.0" encoding="UTF-8"?>
<svg width="200" height="200" viewBox="0 0 200 200" fill="none" xmlns="http://www.w3.org/2000/svg">
    <rect width="200" height="200" fill="#F3F4F6"/>
    <path d="M50 50H150V150H50V50Z" fill="#E5E7EB"/>
    <path d="M70 80H130V90H70V80ZM70 100H130V110H70V100ZM70 120H100V130H70V120Z" fill="#9CA3AF"/>
    <path d="M60 70H140V140H60V70Z" stroke="#9CA3AF" stroke-width="2"/>
    <path d="M80 50V40C80 37.3478 81.0536 34.8043 82.9289 32.9289C84.8043 31.0536 87.3478 30 90 30H110C112.652 30 115.196 31.0536 117.071 32.9289C118.946 34.8043 120 37.3478 120 40V50" stroke="#9CA3AF" stroke-width="2"/>
    <path d="M70 50H130" stroke="#9CA3AF" stroke-width="2"/>
</svg>
